<svg width="70" height="70" viewBox="0 0 70 70" fill="none" xmlns="http://www.w3.org/2000/svg">
<rect width="70" height="70" fill="white"/>
<path fill-rule="evenodd" clip-rule="evenodd" d="M0.903517 47.125L14.6726 28.5429L18.4395 30.556L27.4026 16L32.9879 22.6588L35.0665 20.9553L43.1199 31.1755L48.8355 24.3619L64.8126 47.125L49.42 27.7689L47.0817 35.8984L49.225 42.3249L35.456 23.3556L35.3069 29.8279L43.1199 47.125L28.5064 20.3357L32.7282 34.8145L26.8181 20.7229L23.5706 30.0916L24.2198 23.9747L16.1013 46.0411L17.0753 36.75L13.6981 33.0338L0.903517 47.125Z" fill="#011C40"/>
<path fill-rule="evenodd" clip-rule="evenodd" d="M69.4414 50.0314C47.641 32.428 13.7091 56.6289 0 47.2961C15.0723 60.5215 50.3019 38.1644 69.4414 50.0314Z" fill="#011C40"/>
<path fill-rule="evenodd" clip-rule="evenodd" d="M70 51.4157C52.8956 40.5171 27.4568 55.6838 14.4189 52.1717C28.5467 59.0283 54.8482 43.8361 70 51.4157Z" fill="#011C40"/>
</svg>
